<?xml version="1.0" encoding="UTF-8" standalone="no"?>
<svg
   xmlns:dc="http://purl.org/dc/elements/1.1/"
   xmlns:cc="http://creativecommons.org/ns#"
   xmlns:rdf="http://www.w3.org/1999/02/22-rdf-syntax-ns#"
   xmlns:svg="http://www.w3.org/2000/svg"
   xmlns="http://www.w3.org/2000/svg"
   xmlns:sodipodi="http://sodipodi.sourceforge.net/DTD/sodipodi-0.dtd"
   xmlns:inkscape="http://www.inkscape.org/namespaces/inkscape"
   version="1.1"
   id="_x32_"
   x="0px"
   y="0px"
   viewBox="0 0 512 380"
   style="opacity:1"
   xml:space="preserve"
   sodipodi:docname="cow.svg"
   width="512"
   height="380"
   inkscape:version="1.0.1 (3bc2e813f5, 2020-09-07)"><metadata
   id="metadata8760"><rdf:RDF><cc:Work
       rdf:about=""><dc:format>image/svg+xml</dc:format><dc:type
         rdf:resource="http://purl.org/dc/dcmitype/StillImage" /><dc:title></dc:title></cc:Work></rdf:RDF></metadata><defs
   id="defs8758" /><sodipodi:namedview
   pagecolor="#ffffff"
   bordercolor="#666666"
   borderopacity="1"
   objecttolerance="10"
   gridtolerance="10"
   guidetolerance="10"
   inkscape:pageopacity="0"
   inkscape:pageshadow="2"
   inkscape:window-width="1920"
   inkscape:window-height="1017"
   id="namedview8756"
   showgrid="false"
   inkscape:zoom="1.1739077"
   inkscape:cx="222.31713"
   inkscape:cy="235.00757"
   inkscape:window-x="-8"
   inkscape:window-y="472"
   inkscape:window-maximized="1"
   inkscape:current-layer="_x32_" />
<style
   type="text/css"
   id="style8749">
	.st0{fill:#4B4B4B;}
</style>
<g
   id="g8753"
   transform="translate(0,-66.444744)">
	<path
   class="st0"
   d="m 508.814,298.717 c 0,0 -3.011,-45.186 -3.011,-66.266 0,-18.84 -7.226,-38.239 -18.435,-44.31 -14.85,-32.44 -67.54,-30.799 -89.424,-30.799 -25.605,0 -82.032,-1.538 -106.88,-1.538 -24.848,0 -79.107,-7.13 -107.716,-15.407 -28.616,-8.286 -47.066,-23.717 -50.826,-19.207 -3.761,4.524 -11.297,9.798 -21.836,8.285 21.836,-8.285 20.33,-31.619 17.32,-34.63 -3.012,-3.012 -15.065,-3.768 -26.354,9.783 6.772,-12.802 -6.031,-30.113 -12.802,-33.881 -6.78,-3.768 -13.552,-2.263 -8.286,1.505 5.274,3.769 8.286,20.331 0.757,27.111 0,0 -23.342,14.3 -27.858,17.319 -4.517,3.012 -33.134,39.904 -38.407,42.916 C 9.79,162.608 0,167.874 0,170.894 c 0,3.012 11.296,25.971 17.319,25.971 6.023,0 53.081,5.648 82.446,7.911 0,0 18.833,30.52 28.242,57.598 5.09,14.667 10.539,45.457 17.319,57.582 14.3,25.596 33.133,47.432 33.133,60.984 0,13.559 0,43.672 0,43.672 l -8.285,14.308 c 0,0 6.023,3.768 17.319,3.768 11.297,0 12.795,-8.285 12.795,-12.053 0,-3.761 0,-56.467 0,-56.467 0,0 -3.011,-14.308 -3.011,-23.35 0,-9.034 12.053,-57.224 12.802,-63.995 0,0 1.506,16.562 1.506,21.08 0,0 35.1,12.165 53.089,13.957 30.114,3.011 51.201,9.042 94.874,4.517 35.323,-3.649 63.294,-24.497 63.294,-24.497 0,0 -3.02,-14.308 0.749,-21.836 6.022,42.167 40.661,71.532 40.661,73.786 0,2.263 -5.313,70.058 -5.313,70.058 l -6.78,15.814 c 0,0 2.302,3.736 13.599,3.736 11.297,0 15.057,-6.779 15.057,-15.057 0,-8.285 15.057,-79.068 15.814,-84.334 0.757,-5.274 -4.517,-42.924 -6.023,-46.684 -1.179,-2.956 -0.048,-51.895 0.502,-76.407 6.509,21.884 7.282,57.756 5.665,68.719 -3.386,22.959 6.022,45.178 6.022,45.178 0,0 3.012,7.528 7.529,-9.034 4.513,-16.562 -1.51,-27.102 -1.51,-27.102 z"
   style="fill:#73003f"
   id="path8751" />
</g>
</svg>
