<?xml version="1.0" encoding="UTF-8" standalone="no"?>
<svg
   xmlns:dc="http://purl.org/dc/elements/1.1/"
   xmlns:cc="http://creativecommons.org/ns#"
   xmlns:rdf="http://www.w3.org/1999/02/22-rdf-syntax-ns#"
   xmlns:svg="http://www.w3.org/2000/svg"
   xmlns="http://www.w3.org/2000/svg"
   xmlns:sodipodi="http://sodipodi.sourceforge.net/DTD/sodipodi-0.dtd"
   xmlns:inkscape="http://www.inkscape.org/namespaces/inkscape"
   version="1.1"
   id="_x32_"
   x="0px"
   y="0px"
   width="512"
   height="400"
   viewBox="0 0 512 400"
   xml:space="preserve"
   sodipodi:docname="fuji.svg"
   inkscape:version="1.0.1 (3bc2e813f5, 2020-09-07)"><metadata
   id="metadata50"><rdf:RDF><cc:Work
       rdf:about=""><dc:format>image/svg+xml</dc:format><dc:type
         rdf:resource="http://purl.org/dc/dcmitype/StillImage" /><dc:title></dc:title></cc:Work></rdf:RDF></metadata><defs
   id="defs48" /><sodipodi:namedview
   pagecolor="#ffffff"
   bordercolor="#666666"
   borderopacity="1"
   objecttolerance="10"
   gridtolerance="10"
   guidetolerance="10"
   inkscape:pageopacity="0"
   inkscape:pageshadow="2"
   inkscape:window-width="1920"
   inkscape:window-height="1017"
   id="namedview46"
   showgrid="false"
   inkscape:zoom="1.1739077"
   inkscape:cx="310.35697"
   inkscape:cy="252.30131"
   inkscape:window-x="-8"
   inkscape:window-y="472"
   inkscape:window-maximized="1"
   inkscape:current-layer="_x32_" />
<g
   id="g43">
	<path
   style="fill:#00a0e9"
   d="m 362.155,222.24 -10.435,7.942 -31.91,-36.568 -31.91,36.568 -31.911,-36.568 -31.906,36.568 -31.91,-36.568 -31.91,36.568 -10.424,-7.933 C 98.756,340.434 1.619,399.985 0,400.136 H 512 C 510.38,399.985 413.237,340.432 362.155,222.24 Z"
   id="path37" />
	<path
   style="fill:#ffffff"
   d="m 192.174,202.94 31.91,28.68 31.906,-28.68 31.911,28.68 31.91,-28.68 31.91,28.68 10.435,-9.38 C 348.154,189.847 337.611,153.053 333.447,111.864 H 178.554 c -4.164,41.197 -14.711,77.99 -28.714,110.386 l 10.424,9.37 z"
   id="path39" />
	<path
   style="opacity:0.2;fill:#3e3a39"
   d="M 395.203,400.136 H 512 C 510.38,399.986 413.237,340.432 362.155,222.24 348.153,189.847 337.61,153.053 333.446,111.864 h -55.939 c 6.933,73.172 31.896,193.657 117.696,288.272 z"
   id="path41" />
</g>
</svg>
