<svg xmlns="http://www.w3.org/2000/svg" viewBox="0 0 19.78 91.85"><defs><style>.a{isolation:isolate;}</style></defs><path d="M4.66,8.67A1.26,1.26,0,0,1,4,8.46a1,1,0,0,0-.75-.14V8.25L3.94,8,4,7.71A4.11,4.11,0,0,0,5.7,7.39l1.54-.62.07-.3h.94V6.33h.59l.56.21L9.47,7A18.78,18.78,0,0,0,7.15,8,5.78,5.78,0,0,1,4.66,8.67ZM6.38,18.82v-.09l0-.21-.59-.22-.56-.53v-.12l-.52-.31a1.43,1.43,0,0,0-.43-1,2.09,2.09,0,0,1-.57-1h.07l1,.52L5,15.42a1.81,1.81,0,0,0,.5,1.08,2.26,2.26,0,0,1,.57,1.05h.29l.86-.42.07-.89-.07-1.17H7.1l-.56.45-.8-1.11v-.16L6.33,14l.49.07.28-.35h.21v-.17h.38l.63.21v0h.07l1.15.49.07.45-.87.51a5.33,5.33,0,0,0-.42,1.24c-.09.44-.16.89-.21,1.34l-.42.14-.45.23L7,18.45ZM5.6,12.63l-1.15-.35v-.09a7.81,7.81,0,0,0,1.44-.53,3.41,3.41,0,0,1,1.49-.34.79.79,0,0,1,.25.19.9.9,0,0,1,.17.26V12a5.3,5.3,0,0,1-1,.46A4,4,0,0,1,5.6,12.63Zm.07-2.13-.79-.21v-.07A1.1,1.1,0,0,0,5.52,10a1.57,1.57,0,0,1,.64-.3l.07-.21,1.36-.16.21.44a2.38,2.38,0,0,1-1,.53A6.49,6.49,0,0,1,5.67,10.5Zm3.21-5V5.37l-.14-.28a7.52,7.52,0,0,1-1.39-.64A14.06,14.06,0,0,0,6,3.75V3.68h.14l.29.07.28-.07A5.53,5.53,0,0,0,7.9,4a2.17,2.17,0,0,1,1.15.55l.21.66Zm3.45,13.48a8.14,8.14,0,0,0-.93-.39,4.17,4.17,0,0,1-.92-.46l-.07-.16.77-.21c1.16-.16,2.32-.36,3.49-.6a18,18,0,0,1,3.61-.36v-.24h.1a6.3,6.3,0,0,0,1.71.41,7.18,7.18,0,0,1,1.73.41l.07.75-.23.29H21a7.63,7.63,0,0,0-1.68-.4l-1.76-.26a24.47,24.47,0,0,0-2.7.43A16.09,16.09,0,0,0,12.33,18.94ZM15.49,6.7V6.63A8.85,8.85,0,0,0,16,5.74a2.16,2.16,0,0,0,.22-.94l-.45-.16-1.14.45-.08.72-.7.17-.16-.45h-.28l-.8.07-1.27-.44V5.09A3.06,3.06,0,0,0,12.19,5a1.23,1.23,0,0,0,.65-.4l-.44-.52h.09a1,1,0,0,0,.49.31l.57.14a9.6,9.6,0,0,1,1.38-.33c.48-.08,1-.16,1.43-.26l.07-.44a.85.85,0,0,1-.14-.69A1.5,1.5,0,0,0,16.22,2h.05a2.09,2.09,0,0,1,.79.3,7.24,7.24,0,0,0,.73.38l.28.63L18,3.61c.3,0,.59,0,.88,0a1.3,1.3,0,0,1,.71.27l.21.52a.48.48,0,0,1-.41.21h-.45L17.37,4.5l-.17.35-.49.68-.07.21-.37.07-.33.24-.07.28Zm-1,10.22a5.45,5.45,0,0,0,.35-.79A2.58,2.58,0,0,0,15,15.3a1.82,1.82,0,0,1-.7,0,2.92,2.92,0,0,1-.61-.21v-.16l-.33-.14-.09-.22h.14l.72.08.94-.38,0-.87a6,6,0,0,1-1.07-.27,1.73,1.73,0,0,1-.85-.62,3.79,3.79,0,0,0,1.07-.15,6.4,6.4,0,0,0,.94-.34l.07-1.41h-.16l-.28.07-.71-.51-.07.3-.37.05L12,8.84V8.67l-.57-.42h.05c.25.09.5.18.76.25a3.2,3.2,0,0,0,.83.1c.24-.23.49-.49.75-.76a1.54,1.54,0,0,0,.47-.93l.57-.21.82.21L17,6.47l0-.21L18,6.19v-.1h.16l1.48.75.07.43a1.07,1.07,0,0,0-.73.3c-.21.2-.42.4-.6.59l-.59,1.61h-.14l-.07.24-.52.14V10h-.14l-.7.28L16,11.55l.8.08.59-.08.21.29.21.44-.07.14a7.9,7.9,0,0,1-.89.37l-1,.29v.82h.28a1.32,1.32,0,0,1,.89-.31,6.85,6.85,0,0,0,1-.07l.21.59-2.51,1-.28.89Zm.56-7.22V9.49L15,9.33l.07-.94-.28-.14-.28-.82h-.17a3.72,3.72,0,0,0-.49.62,1.48,1.48,0,0,0-.21.79l.42.79.57.14Zm1.57-.44A1.73,1.73,0,0,0,17,8.41a6.19,6.19,0,0,0,.07-1h-.14l-.77.28v.17l.21.37.14.28-.14.8h.21Z" transform="translate(-2.11 -1.99)"/><path d="M7.76,44.53l0-.09H7.66L8,44.27v-.18L7.8,44l-.14.05,0-.14H7.62v0l.18-.28.17,0,.12-.32.16-.14a1.37,1.37,0,0,1,.18-.49,1,1,0,0,0,.12-.5H8.48l-.3.14a.54.54,0,0,1-.38,0v-.11l.1-.26-.05-.12H7.71v-.07l.09-.47-.09-.21L8,41l.23-.29.68-.53v-.19a1,1,0,0,1-.23-.64,3.69,3.69,0,0,0-.07-.65.26.26,0,0,0,.16-.25.65.65,0,0,1,.05-.29l.14,0v-.82l-.28-.47a7.64,7.64,0,0,1-.65-.61,3.41,3.41,0,0,1-.5-.68h.07a7.58,7.58,0,0,0,1.3.5,7.34,7.34,0,0,1,1.28.49l3.09-1.29.05-.26a1.12,1.12,0,0,1-.12-.41c0-.13,0-.28-.07-.46H13a4.16,4.16,0,0,1-.93.49,1.74,1.74,0,0,0-.81.59l-.14.14a.55.55,0,0,1-.25.13.48.48,0,0,1-.31,0v-.12l.07-.33-.05,0,.05-.15L10.36,34l.28-.1v-.09h.09l.07.19L11,34c.22-.08.44-.16.67-.26l.66-.25v-.07L12.16,33l-.09,0-.27-.58a2.15,2.15,0,0,1-.17-.64l.14-.75a1.94,1.94,0,0,0-.3-.51,1.16,1.16,0,0,1-.24-.59h-.1L11,30l-.15,0a.87.87,0,0,0-.19.23.28.28,0,0,0,0,.26l-.19.16a1.28,1.28,0,0,0-.16.65,1.65,1.65,0,0,1-.17.71h0l0,.12a.4.4,0,0,0-.22.27.7.7,0,0,1-.2.32c-.11.42-.22.84-.34,1.26a9.26,9.26,0,0,0-.27,1.27l-.49.09a1.59,1.59,0,0,0-.07-.73,5.64,5.64,0,0,1-.21-.72l.09-.47-.05-.28h.1l.14.07.26.33h.14a10.06,10.06,0,0,0,.3-1.11,5.38,5.38,0,0,0,.12-1.14l-.33-1.11H8.79c-.24.5-.47,1-.72,1.54a9.55,9.55,0,0,1-.85,1.49L7,33.33l0,.12-.14,0-.14,0a.93.93,0,0,1-.2.36,2.25,2.25,0,0,0-.25.34,1.69,1.69,0,0,0-.41.29,1.83,1.83,0,0,1-.36.29L5.39,35v0a12.92,12.92,0,0,0,1.14-2,20.63,20.63,0,0,0,.85-2.16H7.17l-.35.21-.05.26-.54.05V31l0-.24,0-.23.1-.68h.16l0-.09h.09v.09h.1l.14-.05v.05h.21l.68-.26A2,2,0,0,0,8,28.82a2.23,2.23,0,0,1,.18-.77l-.07-.23.3-.07h.12A2.7,2.7,0,0,0,9,27.6a1.35,1.35,0,0,1,.52-.11l.28.1,0,.28-.19.21L9.26,29l.16,0v-.14h.1l.39.17V28.9H10c.23,0,.48.07.74.13a1.5,1.5,0,0,1,.71.38l0,.14-.17.31a2.11,2.11,0,0,0,.75.41,1.56,1.56,0,0,1,.75.5,2.61,2.61,0,0,1,.19.37l.14.31.31.07c.29-.07.59-.16.89-.25a3.56,3.56,0,0,1,.93-.17l.08-.63-.15-.09a2.16,2.16,0,0,1-.19-.61,5.28,5.28,0,0,0-.16-.66h-.14a2.63,2.63,0,0,0-.77.46,1.51,1.51,0,0,1-.8.34l0-.31.14-.82,0-.19h-.07V28.5l.12-.07v-.09l0-.19.1-.33h.11v-.07h.38l.16.12V28l.38.07L14.7,28v-.11h.23V27.8a2.38,2.38,0,0,0,.39,0,.47.47,0,0,0,.29-.14l.12-.56h0a2,2,0,0,0,1,.53,2.19,2.19,0,0,1,1,.45l.07.33-.66.64-.8,2.5c-.29.19-.6.37-.92.54a5.44,5.44,0,0,1-1,.42v.12a2.28,2.28,0,0,0,.45.2,1.37,1.37,0,0,0,.51.08l0,.1.72.35.1.3-.38.42-.09,1.08.09.68-.05.66.21,2.65v1.66L16,41l-.44.35-.12.26h-.07l-.24-.28a.69.69,0,0,1-.18-.35l-.16-.07-.4-1H14.3v-.12l.07-.28-.12,0-.12.18a1.46,1.46,0,0,1-.34.23.59.59,0,0,0-.27.27l-.32.16-.5.14-.09.09-.23.12v0l-2.7,1v.09a.23.23,0,0,0,.22.08h.3l.37,0,.7.21,0,.17-.19.44a3.12,3.12,0,0,0-.6.54,5.06,5.06,0,0,1-.55.59H9.87l-.07.14a1.32,1.32,0,0,1-.48.34,5.05,5.05,0,0,0-.53.24l.14,0L9,44.23h-.1a.76.76,0,0,1-.58.18A.9.9,0,0,0,7.76,44.53Zm4.9-5v-.07l1-.31a5.58,5.58,0,0,1,1-.23v-.77l-.38-2.81h-.07a1,1,0,0,1-.22.2.32.32,0,0,1-.27,0l-.21-.12-.82.68v.12a7.36,7.36,0,0,1-1,.51,4.37,4.37,0,0,1-1.08.26l-.19,1h.14L12,37.45l0-.11a1.36,1.36,0,0,0,.51-.09,1.62,1.62,0,0,1,.52-.08v-.09h.29l.11.05.68-.12.12.21a11.31,11.31,0,0,1-1.79,1.22,8.73,8.73,0,0,1-2,.77v0h-.21l0,.79.09.33h.17Zm1.12-6.63.1-.19h-.15l-.28.12V33h.28Zm4.45,11.6a14.42,14.42,0,0,0-2.1-1.43A20.52,20.52,0,0,1,14,41.74l-.24-.21h.1l1,.26.12,0a8.77,8.77,0,0,1,1.9.51,7.69,7.69,0,0,1,1.76,1l0,.09h.1v.07l.11,0v.1l.47.32.12.24-.21.05-.09.18a2.88,2.88,0,0,0-.51.1A1.43,1.43,0,0,0,18.23,44.53Z" transform="translate(-2.11 -1.99)"/><path d="M16.2,70.69V67.2L16,63.49V60.31l.09-.54a1.9,1.9,0,0,0-.43-1.23,1.58,1.58,0,0,1-.34-1.23h-.47l-1,.14A6.83,6.83,0,0,1,13.49,60a9.66,9.66,0,0,1-1.09,2.24l-.24.07a1,1,0,0,1-.34.54,2,2,0,0,0-.43.54l-.21.09v-.16A7.78,7.78,0,0,0,12,60.55a21,21,0,0,0,.08-3.1l-.54-.54-.07-.61h-.16A5,5,0,0,1,9.43,57a9.43,9.43,0,0,0-2,.59v.14a2.55,2.55,0,0,0,1.25.59,6,6,0,0,0,1.47,0l.07.31a3.77,3.77,0,0,1-.65.67,3.07,3.07,0,0,1-.75.41l-.14.77a3.75,3.75,0,0,0,.69.54,1.3,1.3,0,0,1,.55.7l.14.7-.47.07-.07.31H9.3l-.67-.38c-.11.83-.2,1.65-.25,2.44s-.11,1.61-.15,2.44l-.38.16a1.2,1.2,0,0,0-.4-.66.87.87,0,0,1-.3-.67l.23-.54.24-.07a8.52,8.52,0,0,0,.23-2V61.55H7.69a7,7,0,0,1-.81,1.59c-.34.49-.66,1-1,1.5l-1,1H4.73l-.07.23-.23.1v-.1a27.1,27.1,0,0,0,1.28-2.59,24.24,24.24,0,0,0,1-2.75h-.3a3.33,3.33,0,0,1-.83.35,2.5,2.5,0,0,1-1,0l-.46-.24v-.16l3.32-1.31.07-.71-.23-.77H6.91a14.92,14.92,0,0,0-1.62.75,14,14,0,0,1-1.63.73l-1-.38-.24.07-.3-.23v-.17l1.62-.84v-.16a7.69,7.69,0,0,0,2.33-.65c.73-.33,1.47-.63,2.24-.9A3.31,3.31,0,0,0,9,54.81a3.19,3.19,0,0,0,.11-1.4L8.93,53h.3l.78.23.07.85L9.61,55l-.84.87h.16l.54-.17a7.85,7.85,0,0,0,1.08.08,1.39,1.39,0,0,1,.93.32v-.7h.07l.31.16a19.44,19.44,0,0,0,1.71-2.13A7,7,0,0,0,14.65,51l-.07-.23.7-.23,1.69.63.09.37-.63.4-.07.24-.23.07-.31.54A10.18,10.18,0,0,1,14,54.2c-.62.37-1.24.78-1.87,1.23l-.07.23a7.65,7.65,0,0,0,1.05.08,1.65,1.65,0,0,1,1,.32l4.8-1.54.24-.4.54-.31a2.24,2.24,0,0,0,1,.24,1.35,1.35,0,0,1,1,.37v.33a10.9,10.9,0,0,1-2.13,1c-.75.25-1.48.49-2.2.69v1.78l.14,1.41a5.85,5.85,0,0,0-.19,1.11c0,.38-.07.78-.12,1.21l.17,1.38c-.11,1.3-.27,2.55-.47,3.76S16.46,69.5,16.2,70.69ZM6.38,53.41a2.91,2.91,0,0,1-.59-.34,3.6,3.6,0,0,1-.52-.43v-.23A5.53,5.53,0,0,0,6.91,52c.52-.2,1-.41,1.55-.63L8.53,51,6.61,49.08h.07l.23.09V49H7L9.3,50l.17.39-.17.68,1.25.17v.23l-.71.78a15.94,15.94,0,0,1-1.7.64C7.57,53.09,7,53.26,6.38,53.41Zm0,2.65a3.67,3.67,0,0,1-.51-.66,2.44,2.44,0,0,1-.27-.74h.07l1.08.47.09.53Z" transform="translate(-2.11 -1.99)"/><path d="M11.39,93.84V93.3l.07-.07V89.48a12.27,12.27,0,0,1,0-1.72,5.87,5.87,0,0,0-.2-1.72l.07-.21-.14-1.38-.24-.07L7.56,85.71c-1.12.44-2.26.83-3.43,1.17l-.4-.44L2.51,86.2l.91-.37.24-.61h.16l.07-.31.54-.09.14.23H4.8L7.71,84l.07-.45L6.33,82.38v-.16L6.12,82h1l1.15.44a.72.72,0,0,1,.2.44,4.4,4.4,0,0,1,0,.48l-.07.3H8.7L11,83.06l.1-.84-.1-.31h-.14l-.23-.51h-.17v-.77h-.37l-.54.07c-.34-.1-.68-.18-1-.26A2.28,2.28,0,0,1,7.57,80l-.09-.24a4,4,0,0,0,1.34-.23,11.18,11.18,0,0,1,1.26-.38l.07-1h.3V78h.47l.38.07.4-.07a1.49,1.49,0,0,0,1.32.46,2.62,2.62,0,0,1,1.42.22l.16.71-.16.3L12.68,80l-.23.75.09.39-.16,1.43.16.47h.14A15.12,15.12,0,0,1,15,82.72c.79,0,1.57-.06,2.33-.1l.47-.31a3.81,3.81,0,0,0,1.37.38,3.7,3.7,0,0,1,1.37.37l.08.24-.15.47h-.16V84H18.87l-3.45-.14c-.45.09-.92.16-1.4.22l-1.48.15-.24,1.45.24.54-.16,1.22.07.47-1,6Zm-5.58-14v-.14A9.5,9.5,0,0,0,6.27,78a10.72,10.72,0,0,0,.15-1.79A5.9,5.9,0,0,1,6,75.39a2.37,2.37,0,0,1-.16-.88.3.3,0,0,1,.31-.24h.44a5.62,5.62,0,0,0,1,.24.9.9,0,0,1,.73.54v.3c-.09.45-.19.9-.29,1.34a2.43,2.43,0,0,1-.69,1.19,2.77,2.77,0,0,0-.85,1A5.49,5.49,0,0,1,5.81,79.85Zm3.73-2.51-1.22-.46,1.84-.5a7.68,7.68,0,0,0,1.75-.72l.54-.61H13l2.37.44.07.64-.44.14-.07.23a18.18,18.18,0,0,1-2.58.72A9.56,9.56,0,0,1,9.54,77.34Z" transform="translate(-2.11 -1.99)"/></svg>