<?xml version="1.0" encoding="UTF-8" standalone="no"?>
<svg
   xmlns:dc="http://purl.org/dc/elements/1.1/"
   xmlns:cc="http://creativecommons.org/ns#"
   xmlns:rdf="http://www.w3.org/1999/02/22-rdf-syntax-ns#"
   xmlns:svg="http://www.w3.org/2000/svg"
   xmlns="http://www.w3.org/2000/svg"
   xmlns:sodipodi="http://sodipodi.sourceforge.net/DTD/sodipodi-0.dtd"
   xmlns:inkscape="http://www.inkscape.org/namespaces/inkscape"
   version="1.1"
   id="_x31_"
   x="0px"
   y="0px"
   width="512"
   height="250"
   viewBox="0 0 512 250"
   xml:space="preserve"
   sodipodi:docname="kumo.svg"
   inkscape:version="1.0.1 (3bc2e813f5, 2020-09-07)"><metadata
   id="metadata8700"><rdf:RDF><cc:Work
       rdf:about=""><dc:format>image/svg+xml</dc:format><dc:type
         rdf:resource="http://purl.org/dc/dcmitype/StillImage" /><dc:title></dc:title></cc:Work></rdf:RDF></metadata><defs
   id="defs8698" /><sodipodi:namedview
   pagecolor="#ffffff"
   bordercolor="#666666"
   borderopacity="1"
   objecttolerance="10"
   gridtolerance="10"
   guidetolerance="10"
   inkscape:pageopacity="0"
   inkscape:pageshadow="2"
   inkscape:window-width="1920"
   inkscape:window-height="1017"
   id="namedview8696"
   showgrid="false"
   inkscape:zoom="0.83007813"
   inkscape:cx="68.116378"
   inkscape:cy="143.07955"
   inkscape:window-x="-8"
   inkscape:window-y="472"
   inkscape:window-maximized="1"
   inkscape:current-layer="_x31_" />
<g
   id="g8693"
   style="fill:#ffffff"
   transform="translate(0,-130.48008)">
	<path
   style="fill:#ffffff"
   d="m 411.38,186.514 h -52.976 c -5.917,0 -10.714,-4.796 -10.714,-10.715 0,-5.916 4.797,-10.714 10.714,-10.714 H 497.12 c 8.218,0 14.88,-6.662 14.88,-14.88 0,-8.22 -6.662,-14.88 -14.88,-14.88 H 264.348 c -8.218,0 -14.88,6.66 -14.88,14.88 0,8.218 6.662,14.88 14.88,14.88 h 26.857 c 5.918,0 10.714,4.798 10.714,10.714 0,5.911 -4.789,10.706 -10.7,10.715 H 171.123 c -8.217,0 -14.88,6.66 -14.88,14.88 0,8.217 6.663,14.88 14.88,14.88 h 34.002 c 7.803,0 14.131,6.328 14.131,14.132 0,7.803 -6.328,14.129 -14.131,14.129 h -17.86 c -0.003,0 -0.009,0 -0.009,0 H 14.882 C 6.664,244.535 0,251.199 0,259.415 c 0,8.22 6.664,14.882 14.882,14.882 h 101.85 c 5.919,0 10.714,4.797 10.714,10.715 0,5.915 -4.795,10.712 -10.714,10.712 h -5.427 c -8.218,0 -14.88,6.663 -14.88,14.883 0,8.216 6.662,14.879 14.88,14.879 h 125.602 26.857 c 5.916,0 10.714,4.798 10.714,10.716 0,5.913 -4.798,10.714 -10.714,10.714 h -5.428 c -8.219,0 -14.881,6.663 -14.881,14.879 0,8.218 6.662,14.88 14.881,14.88 h 125.603 c 8.218,0 14.88,-6.662 14.88,-14.88 0,-8.216 -6.662,-14.879 -14.88,-14.879 h -52.976 c -5.916,0 -10.714,-4.801 -10.714,-10.714 0,-5.918 4.798,-10.716 10.714,-10.716 h 81.113 c 8.218,0 14.88,-6.663 14.88,-14.88 0,-8.219 -6.662,-14.882 -14.88,-14.882 h -175.17 -52.974 c -5.916,0 -10.714,-4.797 -10.714,-10.712 0,-5.918 4.798,-10.715 10.714,-10.715 h 3.332 13.334 161.609 c 8.219,0 14.882,-6.662 14.882,-14.882 0,-8.216 -6.663,-14.88 -14.882,-14.88 h -68.456 c -7.802,0 -14.13,-6.326 -14.13,-14.129 0,-7.804 6.328,-14.132 14.13,-14.132 h 5.359 112.27 c 8.219,0 14.88,-6.663 14.88,-14.88 0,-8.218 -6.661,-14.88 -14.88,-14.88 z"
   id="path8691" />
</g>
</svg>
